<?xml version="1.0" encoding="UTF-8"?>
<svg width="24px" height="24px" viewBox="0 0 24 24" version="1.1" xmlns="http://www.w3.org/2000/svg">
    <g stroke="none" stroke-width="1" fill="none" fill-rule="evenodd">
        <g transform="translate(2.000000, 2.000000)" fill-rule="nonzero">
            <path d="M0,3.2 C0,1.4326888 1.4326888,0 3.2,0 L16.8,0 C18.5673112,0 20,1.4326888 20,3.2 L20,16.8 C20,18.5673112 18.5673112,20 16.8,20 L3.2,20 C1.4326888,20 0,18.5673112 0,16.8 L0,3.2 Z" fill="#0EA5E9"></path>
            <path d="M16,13 L16,15 L4,15 L4,13 L16,13 Z M12,7 L12,9 L4,9 L4,7 L12,7 Z M16,4 L16,6 L4,6 L4,4 L16,4 Z" fill="#FFFFFF"></path>
        </g>
    </g>
</svg>
